<?xml version="1.0" standalone="no"?>
<!DOCTYPE svg PUBLIC "-//W3C//DTD SVG 20010904//EN"
 "http://www.w3.org/TR/2001/REC-SVG-20010904/DTD/svg10.dtd">
<svg version="1.0" xmlns="http://www.w3.org/2000/svg"
 width="729.000000pt" height="729.000000pt" viewBox="0 0 729.000000 729.000000"
 preserveAspectRatio="xMidYMid meet">
<metadata>
Created by potrace 1.14, written by Peter Selinger 2001-2017
</metadata>
<g transform="translate(0.000000,729.000000) scale(0.100000,-0.100000)"
fill="#000000" stroke="none">
<path d="M3428 7195 c-2 -1 -45 -6 -95 -9 -51 -4 -103 -9 -115 -11 -13 -3 -68
-11 -124 -19 -55 -9 -130 -22 -165 -30 -35 -8 -76 -17 -90 -19 -14 -3 -77 -19
-140 -36 -368 -102 -727 -267 -1048 -483 -70 -48 -241 -175 -251 -187 -3 -4
-25 -22 -50 -41 -104 -81 -289 -266 -428 -428 -164 -191 -348 -471 -470 -717
-64 -129 -174 -398 -187 -455 -4 -19 -11 -41 -15 -50 -17 -31 -76 -254 -96
-355 -4 -22 -8 -44 -10 -50 -3 -13 -22 -130 -29 -178 -3 -20 -7 -52 -10 -71
-27 -190 -27 -692 0 -847 2 -13 7 -43 10 -66 13 -109 17 -132 32 -198 8 -38
16 -79 18 -90 11 -79 102 -375 162 -529 97 -251 306 -630 440 -801 4 -6 28
-37 53 -70 112 -150 278 -330 440 -475 61 -55 163 -142 185 -158 6 -4 37 -28
70 -53 277 -212 689 -424 1045 -538 88 -28 269 -78 315 -87 11 -2 31 -6 45 -9
76 -16 338 -55 415 -62 171 -15 632 -8 732 11 12 3 46 7 75 10 29 4 64 8 78
11 470 90 779 197 1144 394 381 206 705 472 1021 836 83 95 268 358 352 500
44 74 170 330 209 425 80 196 169 477 189 600 3 19 10 51 15 70 5 19 12 53 15
75 3 22 7 49 10 60 3 18 8 50 21 145 30 231 25 706 -10 905 -3 17 -8 53 -12
80 -3 28 -8 59 -10 70 -2 11 -7 34 -10 50 -24 136 -101 404 -159 560 -373 998
-1167 1776 -2170 2125 -133 46 -308 97 -395 114 -244 48 -257 50 -460 71 -104
11 -532 19 -542 10z"/>
</g>
</svg>
